<?xml version="1.0" encoding="UTF-8"?>
<svg xmlns="http://www.w3.org/2000/svg" xmlns:xlink="http://www.w3.org/1999/xlink" width="32pt" height="32pt" viewBox="0 0 32 32" version="1.1">
<g id="surface1">
<path style=" stroke:none;fill-rule:nonzero;fill:#FFFFFF;fill-opacity:1;" d="M 16 3 C 11.042969 3 7 7.042969 7 12 C 7 13.40625 7.570313 15.019531 8.34375 16.78125 C 9.117188 18.542969 10.113281 20.414063 11.125 22.15625 C 13.148438 25.644531 15.1875 28.5625 15.1875 28.5625 L 16 29.75 L 16.8125 28.5625 C 16.8125 28.5625 18.851563 25.644531 20.875 22.15625 C 21.886719 20.414063 22.882813 18.542969 23.65625 16.78125 C 24.429688 15.019531 25 13.40625 25 12 C 25 7.042969 20.957031 3 16 3 Z M 16 5 C 19.878906 5 23 8.121094 23 12 C 23 12.800781 22.570313 14.316406 21.84375 15.96875 C 21.117188 17.621094 20.113281 19.453125 19.125 21.15625 C 17.554688 23.867188 16.578125 25.300781 16 26.15625 C 15.421875 25.300781 14.445313 23.867188 12.875 21.15625 C 11.886719 19.453125 10.882813 17.621094 10.15625 15.96875 C 9.429688 14.316406 9 12.800781 9 12 C 9 8.121094 12.121094 5 16 5 Z M 16 6.5 C 12.972656 6.5 10.5 8.972656 10.5 12 C 10.5 15.027344 12.972656 17.5 16 17.5 C 19.027344 17.5 21.5 15.027344 21.5 12 C 21.5 8.972656 19.027344 6.5 16 6.5 Z M 16 8.5 C 17.945313 8.5 19.5 10.054688 19.5 12 C 19.5 13.945313 17.945313 15.5 16 15.5 C 14.054688 15.5 12.5 13.945313 12.5 12 C 12.5 10.054688 14.054688 8.5 16 8.5 Z M 16 10 C 14.894531 10 14 10.894531 14 12 C 14 13.105469 14.894531 14 16 14 C 17.105469 14 18 13.105469 18 12 C 18 11.796875 17.964844 11.59375 17.90625 11.40625 C 17.75 11.75 17.402344 12 17 12 C 16.449219 12 16 11.550781 16 11 C 16 10.597656 16.25 10.25 16.59375 10.09375 C 16.40625 10.035156 16.203125 10 16 10 Z "/>
</g>
</svg>
