<?xml version="1.0" encoding="UTF-8"?>
<svg xmlns="http://www.w3.org/2000/svg" xmlns:xlink="http://www.w3.org/1999/xlink" width="32pt" height="32pt" viewBox="0 0 32 32" version="1.1">
<g id="surface1">
<path style=" stroke:none;fill-rule:nonzero;fill:#FFFFFF;fill-opacity:1;" d="M 9 3 C 6.25 3 4 5.25 4 8 C 4 9.570313 4.765625 10.957031 5.90625 11.875 C 4.175781 12.929688 3 14.832031 3 17 L 3 20.40625 L 3.28125 20.71875 L 5 22.4375 L 5 29 L 7 29 L 7 24 L 11 24 L 11 29 L 13 29 L 13 22.4375 L 14.71875 20.71875 L 15 20.40625 L 15 17 C 15 14.832031 13.824219 12.929688 12.09375 11.875 C 13.234375 10.957031 14 9.570313 14 8 C 14 5.25 11.75 3 9 3 Z M 23 3 C 20.25 3 18 5.25 18 8 C 18 9.648438 18.824219 11.121094 20.0625 12.03125 C 19.898438 12.164063 19.738281 12.285156 19.59375 12.4375 C 18.773438 13.304688 18.269531 14.460938 18.03125 15.71875 C 18.023438 15.753906 18.003906 15.777344 18 15.8125 L 16.34375 21.71875 L 16 23 L 20 23 L 20 29 L 22 29 L 22 23 L 24 23 L 24 29 L 26 29 L 26 23 L 30 23 L 29.65625 21.71875 L 27.96875 15.71875 L 27.9375 15.71875 C 27.699219 14.519531 27.21875 13.378906 26.40625 12.5 C 26.257813 12.335938 26.078125 12.203125 25.90625 12.0625 C 27.164063 11.152344 28 9.664063 28 8 C 28 5.25 25.75 3 23 3 Z M 9 5 C 10.667969 5 12 6.332031 12 8 C 12 9.667969 10.667969 11 9 11 C 7.332031 11 6 9.667969 6 8 C 6 6.332031 7.332031 5 9 5 Z M 23 5 C 24.667969 5 26 6.332031 26 8 C 26 9.667969 24.667969 11 23 11 C 21.332031 11 20 9.667969 20 8 C 20 6.332031 21.332031 5 23 5 Z M 9 13 C 11.21875 13 13 14.78125 13 17 L 13 19.5625 L 12.5625 20 L 5.4375 20 L 5 19.5625 L 5 17 C 5 14.78125 6.78125 13 9 13 Z M 23 13 C 23.828125 13 24.421875 13.316406 24.9375 13.875 C 25.453125 14.433594 25.859375 15.261719 26.03125 16.1875 L 26.03125 16.28125 L 27.34375 21 L 18.65625 21 L 19.96875 16.28125 L 19.96875 16.21875 L 20 16.1875 C 20.175781 15.1875 20.558594 14.347656 21.0625 13.8125 C 21.566406 13.277344 22.152344 13 23 13 Z "/>
</g>
</svg>
