<?xml version="1.0" encoding="UTF-8"?>
<svg xmlns="http://www.w3.org/2000/svg" xmlns:xlink="http://www.w3.org/1999/xlink" width="50pt" height="50pt" viewBox="0 0 50 50" version="1.1">
<g id="surface1">
<path style=" stroke:none;fill-rule:nonzero;fill:#FFFFFF;fill-opacity:1;" d="M 25 3 C 12.863281 3 3 12.863281 3 25 C 3 37.136719 12.863281 47 25 47 C 37.136719 47 47 37.136719 47 25 C 47 12.863281 37.136719 3 25 3 Z M 25 5 C 36.058594 5 45 13.941406 45 25 C 45 36.058594 36.058594 45 25 45 C 13.941406 45 5 36.058594 5 25 C 5 13.941406 13.941406 5 25 5 Z M 16.40625 15.46875 C 16.363281 15.476563 16.320313 15.488281 16.28125 15.5 C 15.90625 15.566406 15.605469 15.839844 15.5 16.203125 C 15.394531 16.570313 15.503906 16.960938 15.78125 17.21875 L 23.5625 25 L 15.78125 32.78125 C 15.382813 33.179688 15.382813 33.820313 15.78125 34.21875 C 16.179688 34.617188 16.820313 34.617188 17.21875 34.21875 L 25 26.4375 L 32.78125 34.21875 C 33.179688 34.617188 33.820313 34.617188 34.21875 34.21875 C 34.617188 33.820313 34.617188 33.179688 34.21875 32.78125 L 26.4375 25 L 34.21875 17.21875 C 34.542969 16.917969 34.628906 16.441406 34.433594 16.046875 C 34.242188 15.648438 33.808594 15.429688 33.375 15.5 C 33.152344 15.523438 32.941406 15.625 32.78125 15.78125 L 25 23.5625 L 17.21875 15.78125 C 17.011719 15.558594 16.710938 15.445313 16.40625 15.46875 Z "/>
</g>
</svg>
