<?xml version="1.0" encoding="UTF-8"?>
<svg xmlns="http://www.w3.org/2000/svg" xmlns:xlink="http://www.w3.org/1999/xlink" width="64pt" height="64pt" viewBox="0 0 64 64" version="1.1">
<g id="surface1">
<path style=" stroke:none;fill-rule:nonzero;fill:#FFFFFF;fill-opacity:1;" d="M 39.558594 7.191406 L 38.375 8.816406 L 30.375 20 L 22 20 C 19.203125 20 17.230469 21.675781 15.308594 23.308594 L 14.625 23.941406 C 13.179688 25.148438 8.835938 28.753906 6 31.125 L 6 36.316406 C 6.46875 35.921875 15.035156 28.808594 17.191406 27 L 17.941406 26.375 C 19.703125 24.859375 20.746094 24 22 24 L 27.5 24 L 18.375 36.808594 L 18 37.375 L 18 41.808594 L 20.941406 40.191406 C 20.941406 40.191406 27.308594 36.695313 28.25 36.191406 C 30.390625 35.035156 31.703125 34 33.691406 34 C 34.988281 34 36 35.035156 36 36.558594 C 36 37.460938 35.804688 37.800781 35.441406 38.25 C 35.070313 38.699219 34.425781 39.238281 33.5 39.808594 C 31.324219 41.171875 28.941406 43.5 28.941406 43.5 L 28.808594 43.691406 L 28.691406 43.808594 C 26.371094 47.195313 23.378906 50 18.058594 50 L 6 50 L 6 54 L 18.058594 54 C 23.648438 54 27.308594 51.148438 30.058594 48 L 34.808594 51.625 L 36.441406 52.808594 L 37.625 51.191406 L 57.625 23.191406 L 58.75 21.558594 L 57.191406 20.375 L 41.191406 8.375 Z M 40.441406 12.875 L 53.25 22.433594 L 35.558594 47.125 L 33.066406 45.25 C 33.894531 44.496094 34.703125 43.765625 35.625 43.191406 C 36.628906 42.558594 37.683594 41.886719 38.558594 40.808594 C 39.441406 39.738281 40 38.25 40 36.558594 C 40 36.351563 39.953125 36.144531 39.933594 35.933594 C 41.300781 35.734375 42.453125 35.023438 43.191406 33.808594 C 44.820313 31.289063 43.84375 27.511719 40.933594 25.375 C 39.703125 24.441406 38.328125 24 37 24 C 35.296875 24 33.671875 24.769531 32.75 26.191406 C 32 27.328125 31.835938 28.71875 32.125 30.125 C 29.570313 30.546875 27.738281 31.914063 26.308594 32.691406 Z M 43.691406 19.125 C 43.035156 19.085938 42.453125 19.308594 42.125 19.75 C 41.460938 20.628906 41.988281 22.128906 43.316406 23.125 C 44.636719 24.121094 46.273438 24.253906 46.933594 23.375 C 47.601563 22.496094 47.074219 20.933594 45.75 19.941406 C 45.089844 19.441406 44.339844 19.164063 43.691406 19.125 Z M 37 28 C 37.511719 28 38.023438 28.21875 38.558594 28.625 C 39.890625 29.601563 40.246094 31.121094 39.875 31.691406 L 39.808594 31.691406 L 39.808594 31.75 C 39.761719 31.839844 39.648438 31.898438 39.5 31.941406 L 36.316406 30.058594 C 35.96875 29.351563 35.921875 28.628906 36.125 28.308594 C 36.324219 28.011719 36.808594 28 37 28 Z "/>
</g>
</svg>
