<?xml version="1.0" encoding="UTF-8"?>
<svg xmlns="http://www.w3.org/2000/svg" xmlns:xlink="http://www.w3.org/1999/xlink" width="32pt" height="32pt" viewBox="0 0 32 32" version="1.1">
<g id="surface1">
<path style=" stroke:none;fill-rule:nonzero;fill:#FFFFFF;fill-opacity:1;" d="M 16 4 C 11.882813 4 8.640625 7.128906 8.1875 11.125 C 6.394531 11.425781 4.941406 12.644531 4.34375 14.34375 C 1.882813 15.054688 0 17.25 0 20 C 0 23.324219 2.675781 26 6 26 L 26 26 C 29.324219 26 32 23.324219 32 20 C 32 18.238281 31.144531 16.664063 29.90625 15.5625 C 29.675781 12.046875 26.871094 9.246094 23.34375 9.0625 C 22.140625 6.132813 19.378906 4 16 4 Z M 16 6 C 18.761719 6 20.972656 7.769531 21.75 10.28125 L 21.96875 11 L 23 11 C 25.753906 11 28 13.246094 28 16 L 28 16.5 L 28.40625 16.8125 C 29.351563 17.519531 30 18.734375 30 20 C 30 22.277344 28.277344 24 26 24 L 6 24 C 3.722656 24 2 22.277344 2 20 C 2 17.980469 3.449219 16.414063 5.28125 16.09375 L 5.9375 15.96875 L 6.0625 15.3125 C 6.363281 13.964844 7.554688 13 9 13 L 10 13 L 10 12 C 10 8.628906 12.628906 6 16 6 Z M 16 11.59375 L 15.28125 12.28125 L 11.28125 16.28125 L 12.71875 17.71875 L 15 15.4375 L 15 22 L 17 22 L 17 15.4375 L 19.28125 17.71875 L 20.71875 16.28125 L 16.71875 12.28125 Z "/>
</g>
</svg>
