<?xml version="1.0" encoding="UTF-8"?>
<svg xmlns="http://www.w3.org/2000/svg" xmlns:xlink="http://www.w3.org/1999/xlink" width="32pt" height="32pt" viewBox="0 0 32 32" version="1.1">
<g id="surface1">
<path style=" stroke:none;fill-rule:nonzero;fill:#FFFFFF;fill-opacity:1;" d="M 5 6 C 3.355469 6 2 7.355469 2 9 L 2 23 C 2 24.644531 3.355469 26 5 26 L 27 26 C 28.644531 26 30 24.644531 30 23 L 30 9 C 30 7.355469 28.644531 6 27 6 Z M 5 8 L 27 8 C 27.566406 8 28 8.433594 28 9 L 28 23 C 28 23.566406 27.566406 24 27 24 L 5 24 C 4.433594 24 4 23.566406 4 23 L 4 9 C 4 8.433594 4.433594 8 5 8 Z M 6 12 L 6 16 L 11 16 L 11 12 Z M 16 12 L 16 14 L 25 14 L 25 12 Z M 6 19 L 6 21 L 10 21 L 10 19 Z M 11 19 L 11 21 L 15 21 L 15 19 Z M 16 19 L 16 21 L 20 21 L 20 19 Z M 21 19 L 21 21 L 25 21 L 25 19 Z "/>
</g>
</svg>
