<?xml version="1.0" encoding="UTF-8"?>
<svg xmlns="http://www.w3.org/2000/svg" xmlns:xlink="http://www.w3.org/1999/xlink" width="48pt" height="48pt" viewBox="0 0 48 48" version="1.1">
<g id="surface1">
<path style=" stroke:none;fill-rule:nonzero;fill:#808080;fill-opacity:1;" d="M 24 0 L 19.3125 6.4375 L 12 3.1875 L 11.125 11.125 L 3.1875 12 L 6.4375 19.3125 L 0 24 L 6.4375 28.6875 L 3.1875 36 L 11.125 36.875 L 12 44.8125 L 19.3125 41.5625 L 24 48 L 28.6875 41.5625 L 36 44.8125 L 36.875 36.875 L 44.8125 36 L 41.5625 28.6875 L 48 24 L 41.5625 19.3125 L 44.8125 12 L 36.875 11.125 L 36 3.1875 L 28.6875 6.4375 Z M 18.375 12 C 19.914063 12 21.121094 12.457031 22 13.375 C 22.882813 14.292969 23.3125 15.433594 23.3125 16.8125 L 23.3125 18.0625 C 23.3125 19.429688 22.882813 20.585938 22 21.5 C 21.117188 22.414063 19.953125 22.875 18.4375 22.875 C 16.902344 22.875 15.636719 22.414063 14.75 21.5 C 13.863281 20.585938 13.4375 19.429688 13.4375 18.0625 L 13.4375 16.8125 C 13.4375 15.445313 13.867188 14.296875 14.75 13.375 C 15.628906 12.449219 16.847656 12 18.375 12 Z M 18.375 14.3125 C 17.660156 14.3125 17.132813 14.582031 16.75 15.0625 C 16.363281 15.542969 16.1875 16.117188 16.1875 16.8125 L 16.1875 18.0625 C 16.1875 18.746094 16.359375 19.339844 16.75 19.8125 C 17.140625 20.289063 17.710938 20.5 18.4375 20.5 C 19.144531 20.5 19.683594 20.285156 20.0625 19.8125 C 20.441406 19.34375 20.625 18.757813 20.625 18.0625 L 20.625 16.8125 C 20.625 16.117188 20.390625 15.542969 20 15.0625 C 19.609375 14.582031 19.078125 14.3125 18.375 14.3125 Z M 28.625 14.5625 L 30.625 15.6875 L 19.1875 33.9375 L 17.1875 32.75 Z M 29.625 25.125 C 31.164063 25.125 32.371094 25.582031 33.25 26.5 C 34.132813 27.417969 34.5625 28.570313 34.5625 29.9375 L 34.5625 31.1875 C 34.5625 32.566406 34.132813 33.710938 33.25 34.625 C 32.371094 35.539063 31.140625 36 29.625 36 C 28.085938 36 26.886719 35.542969 26 34.625 C 25.113281 33.707031 24.6875 32.554688 24.6875 31.1875 L 24.6875 29.9375 C 24.6875 28.582031 25.113281 27.421875 26 26.5 C 26.886719 25.574219 28.109375 25.125 29.625 25.125 Z M 29.125 27.5 C 28.648438 27.589844 28.226563 27.828125 27.9375 28.1875 C 27.554688 28.667969 27.375 29.253906 27.375 29.9375 L 27.375 31.1875 C 27.375 31.871094 27.601563 32.457031 28 32.9375 C 28.398438 33.417969 28.921875 33.6875 29.625 33.6875 C 30.371094 33.6875 30.949219 33.40625 31.3125 32.9375 C 31.675781 32.476563 31.8125 31.90625 31.8125 31.1875 L 31.8125 29.9375 C 31.8125 29.253906 31.640625 28.667969 31.25 28.1875 C 30.859375 27.707031 30.339844 27.5 29.625 27.5 C 29.445313 27.5 29.285156 27.46875 29.125 27.5 Z "/>
</g>
</svg>
