<?xml version="1.0" encoding="UTF-8"?>
<svg xmlns="http://www.w3.org/2000/svg" xmlns:xlink="http://www.w3.org/1999/xlink" width="64pt" height="64pt" viewBox="0 0 64 64" version="1.1">
<g id="surface1">
<path style=" stroke:none;fill-rule:nonzero;fill:#FFFFFF;fill-opacity:1;" d="M 31.75 8 L 31.558594 8.066406 L 15.566406 11.816406 L 14 12.191406 L 14 52.691406 L 15.625 52.933594 L 31.625 55.933594 L 31.808594 56 L 36 56 L 36 8 Z M 40 12 L 40 16 L 46 16 L 46 48 L 40 48 L 40 52 L 50 52 L 50 12 Z M 32 12.066406 L 32 52 L 18 49.375 L 18 15.308594 Z M 28.691406 30 C 27.949219 30 27.308594 30.894531 27.308594 32 C 27.308594 33.105469 27.949219 34 28.691406 34 C 29.425781 34 30 33.105469 30 32 C 30 30.894531 29.425781 30 28.691406 30 Z "/>
</g>
</svg>
