<?xml version="1.0" encoding="UTF-8"?>
<svg xmlns="http://www.w3.org/2000/svg" xmlns:xlink="http://www.w3.org/1999/xlink" width="64pt" height="64pt" viewBox="0 0 64 64" version="1.1">
<g id="surface1">
<path style=" stroke:none;fill-rule:nonzero;fill:#FFFFFF;fill-opacity:1;" d="M 26 6 C 18.289063 6 12 12.289063 12 20 C 12 24.820313 14.460938 29.105469 18.191406 31.625 C 11.054688 34.683594 6 41.765625 6 50 L 10 50 C 10 41.140625 17.140625 34 26 34 C 30.289063 34 34.125 35.753906 37 38.5 L 28 47.5 L 27.558594 47.933594 L 27.433594 48.558594 L 26.058594 55.625 L 25.433594 58.558594 L 28.375 57.933594 L 35.441406 56.558594 L 36.066406 56.441406 L 36.5 56 L 56.25 36.25 C 58.574219 33.925781 58.574219 30.074219 56.25 27.75 C 55.089844 26.589844 53.539063 26 52 26 C 50.488281 26 48.964844 26.566406 47.808594 27.691406 L 39.875 35.625 C 38.136719 33.949219 36.066406 32.589844 33.808594 31.625 C 37.539063 29.105469 40 24.820313 40 20 C 40 12.289063 33.710938 6 26 6 Z M 26 10 C 31.546875 10 36 14.453125 36 20 C 36 25.546875 31.546875 30 26 30 C 20.453125 30 16 25.546875 16 20 C 16 14.453125 20.453125 10 26 10 Z M 52 30 C 52.503906 30 53.039063 30.164063 53.441406 30.558594 C 54.234375 31.359375 54.234375 32.578125 53.441406 33.375 L 34.066406 52.75 L 30.5 53.5 L 31.25 49.933594 L 50.625 30.558594 C 51.023438 30.164063 51.496094 30 52 30 Z "/>
</g>
</svg>
