<?xml version="1.0" encoding="UTF-8"?>
<svg xmlns="http://www.w3.org/2000/svg" xmlns:xlink="http://www.w3.org/1999/xlink" width="32pt" height="32pt" viewBox="0 0 32 32" version="1.1">
<g id="surface1">
<path style=" stroke:none;fill-rule:nonzero;fill:#FFFFFF;fill-opacity:1;" d="M 4 4 L 4 9 L 6 9 L 6 6 L 9 6 L 9 4 Z M 23 4 L 23 6 L 26 6 L 26 9 L 28 9 L 28 4 Z M 12.5625 5 C 9.234375 6.636719 7.328125 9.976563 7.03125 13.3125 L 7.03125 13.375 L 7 13.40625 L 7 13.84375 C 6.996094 14.417969 7.023438 15.175781 7.125 16.09375 L 9.09375 15.90625 C 9.003906 15.09375 8.996094 14.382813 9 13.875 L 9 13.5 C 9.238281 10.808594 10.816406 8.070313 13.4375 6.78125 Z M 17 7 C 12.796875 7 10.292969 10.289063 10 13.59375 L 10 13.90625 C 9.992188 14.785156 10.078125 16.285156 10.5 18 L 4 18 L 4 20 L 28 20 L 28 18 L 24 18 L 24 17 L 23 17 C 22.109375 17 21.863281 16.742188 21.75 16.625 C 21.203125 16.0625 20.988281 14.644531 21 14.03125 C 21 12.949219 20.597656 11.949219 19.84375 11.1875 C 19.089844 10.425781 18.070313 10 17 10 C 14.597656 10 13.171875 11.851563 13 13.78125 L 13 13.96875 C 12.996094 14.800781 13.078125 16.324219 13.59375 18 L 12.5625 18 C 12.078125 16.300781 11.992188 14.78125 12 13.9375 L 12 13.6875 C 12.203125 11.351563 13.996094 9 17 9 C 18.339844 9 19.585938 9.515625 20.53125 10.46875 C 21.472656 11.417969 22 12.699219 22 14.0625 L 24 14.0625 C 24 12.167969 23.285156 10.390625 21.96875 9.0625 C 20.644531 7.726563 18.875 7 17 7 Z M 17 12 C 17.53125 12 18.03125 12.214844 18.40625 12.59375 C 18.789063 12.976563 19 13.496094 19 14.03125 C 19 14.058594 18.96875 16.609375 20.28125 18 L 19.03125 18 C 17.949219 16.289063 18 14.058594 18 14.03125 C 18 14.019531 18 14.011719 18 14 C 18 13.449219 17.550781 13 17 13 C 16.460938 13 16.019531 13.433594 16 13.96875 C 15.996094 14.078125 15.96875 16.039063 16.8125 18 L 15.71875 18 C 15.09375 16.351563 14.992188 14.746094 15 13.875 C 15.078125 12.972656 15.742188 12 17 12 Z M 12.09375 22 C 12.566406 22.785156 13.144531 23.558594 13.84375 24.28125 C 14.550781 25.015625 15.328125 25.664063 16.1875 26.1875 L 17.25 24.46875 C 16.539063 24.03125 15.871094 23.488281 15.28125 22.875 C 15.003906 22.585938 14.761719 22.300781 14.53125 22 Z M 15.8125 22 C 15.871094 22.066406 15.941406 22.125 16 22.1875 C 17.773438 24.023438 20.195313 25 23 25 L 23 23 C 21.496094 23 20.148438 22.65625 19 22 Z M 4 23 L 4 28 L 9 28 L 9 26 L 6 26 L 6 23 Z M 26 23 L 26 26 L 23 26 L 23 28 L 28 28 L 28 23 Z "/>
</g>
</svg>
