<?xml version="1.0" encoding="UTF-8"?>
<svg xmlns="http://www.w3.org/2000/svg" xmlns:xlink="http://www.w3.org/1999/xlink" width="50pt" height="50pt" viewBox="0 0 50 50" version="1.1">
<g id="surface1">
<path style=" stroke:none;fill-rule:nonzero;fill:#FFFFFF;fill-opacity:1;" d="M 25 0 C 19.179688 0 14.910156 1.515625 12.09375 4.15625 C 9.277344 6.796875 8 10.492188 8 14.59375 C 8 17.976563 8.519531 21.183594 8.71875 22.28125 C 8.257813 22.765625 8 23.503906 8 24.3125 C 8 25.261719 8.109375 26.195313 8.625 27.03125 C 9.042969 27.707031 9.804688 28.167969 10.6875 28.40625 C 12.035156 31.429688 13.71875 34.460938 15.96875 36.8125 C 18.320313 39.273438 21.339844 41 25 41 C 28.660156 41 31.679688 39.273438 34.03125 36.8125 C 36.28125 34.460938 37.964844 31.429688 39.3125 28.40625 C 40.195313 28.167969 40.957031 27.707031 41.375 27.03125 C 41.890625 26.195313 42 25.261719 42 24.3125 C 42 23.523438 41.769531 22.804688 41.34375 22.3125 C 41.433594 21.664063 42 17.414063 42 13.59375 C 42 11.714844 41.976563 9.367188 40.75 7.375 C 39.597656 5.5 37.296875 4.214844 33.65625 4.0625 C 33.40625 3.574219 33.011719 2.9375 32.21875 2.25 C 30.882813 1.089844 28.597656 0 25 0 Z M 25 2 C 28.203125 2 29.941406 2.910156 30.90625 3.75 C 31.871094 4.589844 32.03125 5.28125 32.03125 5.28125 C 32.15625 5.710938 32.550781 6.003906 33 6 C 36.636719 6 38.179688 7.054688 39.03125 8.4375 C 39.882813 9.820313 40 11.769531 40 13.59375 C 40 16.886719 39.558594 20.394531 39.40625 21.5625 C 39.203125 21.570313 38.996094 21.589844 38.8125 21.625 C 38.371094 21.707031 38.355469 21.792969 38 21.9375 L 38 19 C 38 17.152344 37.828125 16.015625 37.40625 15.15625 C 36.984375 14.296875 36.296875 13.839844 35.84375 13.53125 C 35.390625 13.222656 35.070313 13.007813 34.6875 12.34375 C 34.304688 11.679688 33.90625 10.515625 33.59375 8.4375 C 33.515625 7.921875 33.050781 7.554688 32.53125 7.59375 C 32.082031 7.628906 31.707031 7.960938 31.625 8.40625 C 31.464844 9.195313 31.136719 9.667969 30.65625 10.0625 C 30.175781 10.457031 29.488281 10.738281 28.625 10.9375 C 26.902344 11.332031 24.539063 11.324219 22.15625 11.40625 C 19.773438 11.488281 17.359375 11.671875 15.375 12.71875 C 13.390625 13.765625 12 15.839844 12 19 L 12 21.96875 C 11.640625 21.832031 11.628906 21.734375 11.1875 21.65625 C 11.011719 21.625 10.816406 21.601563 10.625 21.59375 C 10.402344 20.257813 10 17.425781 10 14.59375 C 10 10.894531 11.078125 7.804688 13.4375 5.59375 C 15.796875 3.382813 19.519531 2 25 2 Z M 32.34375 11.15625 C 32.5625 11.855469 32.699219 12.878906 32.96875 13.34375 C 33.53125 14.324219 34.234375 14.859375 34.71875 15.1875 C 35.203125 15.515625 35.390625 15.621094 35.59375 16.03125 C 35.796875 16.441406 36 17.296875 36 19 L 36 23.40625 C 36.007813 23.757813 36.203125 24.082031 36.507813 24.253906 C 36.816406 24.429688 37.195313 24.425781 37.5 24.25 C 37.5 24.25 38.449219 23.730469 39.1875 23.59375 C 39.5 23.535156 39.695313 23.5625 39.78125 23.59375 C 39.796875 23.597656 39.835938 23.621094 39.84375 23.625 C 39.890625 23.652344 40 23.691406 40 24.3125 C 40 25.066406 39.867188 25.660156 39.65625 26 C 39.445313 26.339844 39.21875 26.519531 38.5 26.59375 C 38.140625 26.632813 37.832031 26.859375 37.6875 27.1875 C 36.363281 30.226563 34.660156 33.246094 32.5625 35.4375 C 30.464844 37.628906 28.042969 39 25 39 C 21.957031 39 19.535156 37.628906 17.4375 35.4375 C 15.339844 33.246094 13.636719 30.226563 12.3125 27.1875 C 12.167969 26.859375 11.859375 26.632813 11.5 26.59375 C 10.78125 26.519531 10.554688 26.339844 10.34375 26 C 10.132813 25.660156 10 25.066406 10 24.3125 C 10 23.722656 10.105469 23.6875 10.15625 23.65625 C 10.207031 23.625 10.441406 23.558594 10.8125 23.625 C 11.558594 23.753906 12.5 24.28125 12.5 24.28125 C 12.8125 24.460938 13.195313 24.460938 13.503906 24.277344 C 13.8125 24.097656 14.003906 23.765625 14 23.40625 L 14 19 C 14 16.359375 14.875 15.226563 16.3125 14.46875 C 17.75 13.710938 19.933594 13.488281 22.25 13.40625 C 24.566406 13.324219 26.992188 13.390625 29.09375 12.90625 C 30.144531 12.664063 31.125 12.289063 31.9375 11.625 C 32.09375 11.496094 32.203125 11.308594 32.34375 11.15625 Z M 16.53125 40.0625 C 16.195313 40.097656 15.878906 40.214844 15.65625 40.40625 C 15.214844 40.789063 15 41.328125 15 41.90625 L 15 48.1875 C 15 48.765625 15.246094 49.335938 15.6875 49.6875 C 16.128906 50.039063 16.804688 50.164063 17.375 49.9375 L 17.40625 49.90625 L 17.4375 49.90625 L 22 47.71875 C 22.289063 47.886719 22.632813 48 23 48 L 27 48 C 27.363281 48 27.722656 47.90625 28.03125 47.71875 L 32.5625 49.90625 L 32.59375 49.90625 L 32.625 49.9375 C 33.195313 50.164063 33.871094 50.039063 34.3125 49.6875 C 34.753906 49.335938 35 48.765625 35 48.1875 L 35 41.90625 C 35 41.328125 34.785156 40.789063 34.34375 40.40625 C 34.121094 40.214844 33.804688 40.097656 33.46875 40.0625 C 33.167969 40.027344 32.867188 40.082031 32.59375 40.21875 L 32.5625 40.1875 L 28.125 42.3125 C 27.789063 42.101563 27.390625 42 27 42 L 23 42 C 22.597656 42 22.203125 42.117188 21.875 42.34375 L 17.4375 40.1875 L 17.40625 40.21875 C 17.132813 40.082031 16.832031 40.027344 16.53125 40.0625 Z M 17 42.21875 L 21 44.125 L 21 45.96875 L 17 47.875 Z M 33 42.21875 L 33 47.875 L 29 45.96875 L 29 44.125 Z M 23 44 L 27 44 L 27 46 L 23 46 Z "/>
</g>
</svg>
