<?xml version="1.0" encoding="UTF-8"?>
<svg xmlns="http://www.w3.org/2000/svg" xmlns:xlink="http://www.w3.org/1999/xlink" width="96pt" height="96pt" viewBox="0 0 96 96" version="1.1">
<g id="surface1">
<path style=" stroke:none;fill-rule:nonzero;fill:#FFFFFF;fill-opacity:1;" d="M 30 12 L 30 33.285156 C 30.984375 33.140625 31.980469 33 33 33 C 34.019531 33 35.015625 33.140625 36 33.285156 L 36 18 L 78 18 L 78 72 L 57.097656 72 C 58.042969 73.890625 58.859375 75.890625 59.339844 78 L 84 78 L 84 12 Z M 42 24 L 42 30 L 48 30 L 48 24 Z M 54 24 L 54 30 L 60 30 L 60 24 Z M 66 24 L 66 30 L 72 30 L 72 24 Z M 43.785156 36 C 45.328125 36.929688 46.738281 38.085938 48 39.375 L 48 36 Z M 54 36 L 54 42 L 60 42 L 60 36 Z M 66 36 L 66 42 L 72 42 L 72 36 Z M 33 39 C 24.75 39 18 45.75 18 54 C 18 58.546875 20.121094 62.585938 23.347656 65.339844 C 16.597656 68.84375 12 75.898438 12 84 L 18 84 C 18 75.683594 24.683594 69 33 69 C 41.316406 69 48 75.683594 48 84 L 54 84 C 54 75.898438 49.402344 68.84375 42.652344 65.339844 C 45.878906 62.585938 48 58.546875 48 54 C 48 45.75 41.25 39 33 39 Z M 33 45 C 38.003906 45 42 48.996094 42 54 C 42 59.003906 38.003906 63 33 63 C 27.996094 63 24 59.003906 24 54 C 24 48.996094 27.996094 45 33 45 Z M 54 48 L 54 54 L 60 54 L 60 48 Z M 66 48 L 66 54 L 72 54 L 72 48 Z M 54 60 L 54 66 L 60 66 L 60 60 Z M 66 60 L 66 66 L 72 66 L 72 60 Z "/>
</g>
</svg>
