<?xml version="1.0" encoding="UTF-8"?>
<svg xmlns="http://www.w3.org/2000/svg" xmlns:xlink="http://www.w3.org/1999/xlink" width="32pt" height="32pt" viewBox="0 0 32 32" version="1.1">
<g id="surface1">
<path style=" stroke:none;fill-rule:nonzero;fill:#FFFFFF;fill-opacity:1;" d="M 16 4 C 9.382813 4 4 9.382813 4 16 C 4 22.617188 9.382813 28 16 28 C 22.382813 28 27.609375 22.984375 27.96875 16.6875 C 26.785156 18.816406 25.269531 20.707031 23.9375 22.03125 C 22.738281 23.605469 21.101563 24.824219 19.1875 25.46875 C 19.675781 24.527344 20.050781 23.371094 20.34375 22.09375 C 19.777344 21.523438 19.121094 20.820313 18.4375 20 L 13.28125 20 C 13.144531 19.082031 13.066406 18.078125 13.03125 17 L 16.28125 17 C 15.890625 16.359375 15.535156 15.691406 15.21875 15 L 13.03125 15 C 13.066406 13.921875 13.144531 12.917969 13.28125 12 L 14.21875 12 C 14.085938 11.339844 14 10.671875 14 10 L 13.6875 10 C 13.828125 9.449219 13.992188 8.945313 14.15625 8.5 C 14.492188 6.734375 15.394531 5.183594 16.6875 4.03125 C 16.457031 4.019531 16.230469 4 16 4 Z M 22 4 C 18.699219 4 16 6.699219 16 10 C 16 10.992188 16.382813 12.003906 16.875 13.125 C 17.367188 14.246094 17.988281 15.433594 18.625 16.53125 C 19.898438 18.726563 21.1875 20.5625 21.1875 20.5625 L 22 21.75 L 22.8125 20.5625 C 22.8125 20.5625 24.101563 18.726563 25.375 16.53125 C 26.011719 15.433594 26.632813 14.246094 27.125 13.125 C 27.617188 12.003906 28 10.992188 28 10 C 28 6.699219 25.300781 4 22 4 Z M 22 6 C 24.21875 6 26 7.78125 26 10 C 26 10.386719 25.757813 11.300781 25.3125 12.3125 C 24.867188 13.324219 24.238281 14.472656 23.625 15.53125 C 22.808594 16.9375 22.457031 17.4375 22 18.125 C 21.542969 17.4375 21.191406 16.9375 20.375 15.53125 C 19.761719 14.472656 19.132813 13.324219 18.6875 12.3125 C 18.242188 11.300781 18 10.386719 18 10 C 18 7.78125 19.78125 6 22 6 Z M 12.8125 6.53125 C 12.3125 7.496094 11.921875 8.679688 11.625 10 L 8.03125 10 C 9.234375 8.402344 10.878906 7.179688 12.8125 6.53125 Z M 22 8.5 C 21.171875 8.5 20.5 9.171875 20.5 10 C 20.5 10.828125 21.171875 11.5 22 11.5 C 22.828125 11.5 23.5 10.828125 23.5 10 C 23.5 9.171875 22.828125 8.5 22 8.5 Z M 6.84375 12 L 11.28125 12 C 11.148438 12.972656 11.0625 13.980469 11.03125 15 L 6.0625 15 C 6.167969 13.941406 6.433594 12.933594 6.84375 12 Z M 6.0625 17 L 11.03125 17 C 11.0625 18.019531 11.148438 19.027344 11.28125 20 L 6.84375 20 C 6.433594 19.066406 6.167969 18.058594 6.0625 17 Z M 8.03125 22 L 11.625 22 C 11.921875 23.320313 12.308594 24.503906 12.8125 25.46875 C 10.878906 24.820313 9.234375 23.597656 8.03125 22 Z M 13.6875 22 L 18.3125 22 C 17.675781 24.515625 16.726563 26 16 26 C 15.273438 26 14.320313 24.515625 13.6875 22 Z "/>
</g>
</svg>
