<?xml version="1.0" encoding="UTF-8"?>
<svg xmlns="http://www.w3.org/2000/svg" xmlns:xlink="http://www.w3.org/1999/xlink" width="32pt" height="32pt" viewBox="0 0 32 32" version="1.1">
<g id="surface1">
<path style=" stroke:none;fill-rule:nonzero;fill:#808080;fill-opacity:1;" d="M 16 5 C 12.144531 5 9 8.144531 9 12 C 9 14.410156 10.230469 16.550781 12.09375 17.8125 C 8.527344 19.34375 6 22.882813 6 27 L 8 27 C 8 24.46875 9.171875 22.214844 11 20.75 L 15.3125 24.71875 L 16 25.375 L 16.6875 24.71875 L 21 20.75 C 22.828125 22.214844 24 24.46875 24 27 L 26 27 C 26 22.882813 23.472656 19.34375 19.90625 17.8125 C 21.769531 16.550781 23 14.410156 23 12 C 23 8.144531 19.855469 5 16 5 Z M 16 7 C 18.773438 7 21 9.226563 21 12 C 21 14.773438 18.773438 17 16 17 C 13.226563 17 11 14.773438 11 12 C 11 9.226563 13.226563 7 16 7 Z M 16 19 C 17.140625 19 18.238281 19.226563 19.21875 19.65625 L 16 22.65625 L 12.78125 19.65625 C 13.761719 19.226563 14.859375 19 16 19 Z "/>
</g>
</svg>
