<?xml version="1.0" encoding="UTF-8"?>
<svg xmlns="http://www.w3.org/2000/svg" xmlns:xlink="http://www.w3.org/1999/xlink" width="64pt" height="64pt" viewBox="0 0 64 64" version="1.1">
<g id="surface1">
<path style=" stroke:none;fill-rule:nonzero;fill:#FFFFFF;fill-opacity:1;" d="M 10 12 C 6.710938 12 4 14.710938 4 18 L 4 46 C 4 49.289063 6.710938 52 10 52 L 54 52 C 57.289063 52 60 49.289063 60 46 L 60 18 C 60 14.710938 57.289063 12 54 12 Z M 10 16 L 54 16 C 55.128906 16 56 16.871094 56 18 L 56 46 C 56 47.128906 55.128906 48 54 48 L 10 48 C 8.871094 48 8 47.128906 8 46 L 8 18 C 8 16.871094 8.871094 16 10 16 Z M 24 20 L 20.335938 28 L 11.386719 29.171875 L 18 35.195313 L 16 44 L 24 39.503906 L 32 44 L 30 35.195313 L 36.613281 29.171875 L 27.664063 28 Z M 24 29.605469 L 24.023438 29.664063 L 24.949219 31.679688 L 27.144531 31.964844 L 27.546875 32.019531 L 27.304688 32.234375 L 25.578125 33.804688 L 26.101563 36.078125 L 26.101563 36.101563 L 25.953125 36.015625 L 24 34.914063 L 22.039063 36.015625 L 21.898438 36.101563 L 21.898438 36.078125 L 22.421875 33.804688 L 20.695313 32.234375 L 20.453125 32.019531 L 20.851563 31.964844 L 23.046875 31.679688 L 23.96875 29.664063 Z M 36 40 L 36 44 L 40 44 L 40 40 Z M 42 40 L 42 44 L 46 44 L 46 40 Z M 48 40 L 48 44 L 52 44 L 52 40 Z "/>
</g>
</svg>
