<?xml version="1.0" encoding="UTF-8"?>
<svg xmlns="http://www.w3.org/2000/svg" xmlns:xlink="http://www.w3.org/1999/xlink" width="64pt" height="64pt" viewBox="0 0 64 64" version="1.1">
<g id="surface1">
<path style=" stroke:none;fill-rule:nonzero;fill:#FFFFFF;fill-opacity:1;" d="M 4 10 L 4 42 L 60 42 L 60 10 Z M 11.824219 14 L 52.175781 14 C 52.058594 14.320313 52 14.660156 52 15 C 52 16.65625 53.34375 18 55 18 C 55.339844 18 55.679688 17.941406 56 17.824219 L 56 34.175781 C 55.679688 34.058594 55.339844 34 55 34 C 53.34375 34 52 35.34375 52 37 C 52 37.339844 52.058594 37.679688 52.175781 38 L 11.824219 38 C 11.941406 37.679688 12 37.339844 12 37 C 12 35.34375 10.65625 34 9 34 C 8.660156 34 8.320313 34.058594 8 34.175781 L 8 17.824219 C 8.320313 17.941406 8.660156 18 9 18 C 10.65625 18 12 16.65625 12 15 C 12 14.660156 11.941406 14.320313 11.824219 14 Z M 32 18 C 27.578125 18 24 21.578125 24 26 L 24 28 L 24.398438 28 C 25.308594 31.425781 28.289063 34 32 34 C 35.710938 34 38.691406 31.425781 39.601563 28 L 40 28 L 40 26 C 40 21.578125 36.421875 18 32 18 Z M 32 22 C 34.378906 22 36 23.621094 36 26 C 36 28.378906 34.378906 30 32 30 C 29.621094 30 28 28.378906 28 26 C 28 23.621094 29.621094 22 32 22 Z M 18 23 C 16.34375 23 15 24.34375 15 26 C 15 27.65625 16.34375 29 18 29 C 19.65625 29 21 27.65625 21 26 C 21 24.34375 19.65625 23 18 23 Z M 46 23 C 44.34375 23 43 24.34375 43 26 C 43 27.65625 44.34375 29 46 29 C 47.65625 29 49 27.65625 49 26 C 49 24.34375 47.65625 23 46 23 Z M 4 44 L 4 48 L 6.011719 48 C 6.011719 48 34.675781 47.925781 55.488281 53.433594 L 58 54.101563 L 58 44 L 54 44 L 54 46.175781 C 53.679688 46.058594 53.339844 46 53 46 C 51.644531 46 50.460938 46.910156 50.105469 48.21875 C 29.554688 43.976563 6.019531 44 6 44 Z "/>
</g>
</svg>
