<svg xmlns="http://www.w3.org/2000/svg" fill-rule="evenodd" stroke-linejoin="round" stroke-miterlimit="2" clip-rule="evenodd" viewBox="0 0 32 32"><g transform="scale(.21157 .17778)"><rect width="151.25" height="180" fill="none"/><path d="M18,16L17,16C17,15.448 16.552,15 16,15C16,15 16,14 16,14L16,15C14.343,15 13,13.657 13,12C13,12 14,12 14,12L13,12C13,10.343 14.343,9 16,9L18,9C18.552,9 19,9.448 19,10C19,10.552 18.552,11 18,11L16,11C15.448,11 15,11.448 15,12C15,12 14,12 14,12L15,12C15,12.552 15.448,13 16,13C16,13 16,14 16,14L16,13C17.657,13 19,14.343 19,16C19,16 18,16 18,16L19,16C19,17.657 17.657,19 16,19L14,19C13.448,19 13,18.552 13,18C13,17.448 13.448,17 14,17L16,17C16.552,17 17,16.552 17,16L18,16ZM18,16C18,16 17,16 17,16L18,16Z" transform="matrix(4.72656 0 0 5.625 0 39.375)"/><path d="M15 8L15 10C15 10.552 15.448 11 16 11 16.552 11 17 10.552 17 10L17 8C17 7.448 16.552 7 16 7 15.448 7 15 7.448 15 8zM17 20L17 18C17 17.448 16.552 17 16 17 15.448 17 15 17.448 15 18L15 20C15 20.552 15.448 21 16 21 16.552 21 17 20.552 17 20z" transform="matrix(4.72656 0 0 5.625 0 39.375)"/><path d="M17,4.1C11.536,4.1 7.1,8.536 7.1,14C7.1,19.464 11.536,23.9 17,23.9C22.464,23.9 26.9,19.464 26.9,14C26.9,8.536 22.464,4.1 17,4.1ZM17,5.9C21.471,5.9 25.1,9.529 25.1,14C25.1,18.471 21.471,22.1 17,22.1C12.529,22.1 8.9,18.471 8.9,14C8.9,9.529 12.529,5.9 17,5.9Z" transform="matrix(5.25174 0 0 6.25 -13.655 30.625)"/><path d="M15,105L15,115C15,115.788 15.448,116.429 16,116.429C16.552,116.429 17,115.788 17,115L17,105C17,104.212 16.552,103.571 16,103.571C15.448,103.571 15,104.212 15,105Z" transform="matrix(4.72656 0 0 3.9375 0 -390.937)"/><path d="M21.5,107C19.513,107 18,108.411 18,110C18,111.589 19.513,113 21.5,113C23.487,113 25,111.589 25,110C25,108.411 23.487,107 21.5,107ZM21.5,109C22.277,109 23,109.378 23,110C23,110.622 22.277,111 21.5,111C20.723,111 20,110.622 20,110C20,109.378 20.723,109 21.5,109Z" transform="matrix(3.34218 -3.97748 3.34218 3.97748 -353.302 -325.363)"/><path d="M21.5,107C23.487,107 25,108.411 25,110C25,111.589 23.487,113 21.5,113C19.513,113 18,111.589 18,110C18,108.411 19.513,107 21.5,107ZM21.5,109C20.723,109 20,109.378 20,110C20,110.622 20.723,111 21.5,111C22.277,111 23,110.622 23,110C23,109.378 22.277,109 21.5,109Z" transform="matrix(-3.34218 -3.97748 -3.34218 3.97748 504.423 -333.647)"/></g></svg>