<?xml version="1.0" encoding="UTF-8"?>
<svg xmlns="http://www.w3.org/2000/svg" xmlns:xlink="http://www.w3.org/1999/xlink" width="50pt" height="50pt" viewBox="0 0 50 50" version="1.1">
<g id="surface1">
<path style=" stroke:none;fill-rule:nonzero;fill:#000000;fill-opacity:1;" d="M 40.625 3.125 L 40.625 6.25 L 37.5 6.25 L 37.5 9.375 L 40.625 9.375 L 40.625 12.5 L 43.75 12.5 L 43.75 9.375 L 46.875 9.375 L 46.875 6.25 L 43.75 6.25 L 43.75 3.125 Z M 16.015625 4.820313 C 15.710938 4.765625 15.386719 4.796875 15.085938 4.929688 C 7.820313 8.214844 3.125 15.480469 3.125 23.4375 C 3.125 34.636719 12.238281 43.75 23.4375 43.75 C 31.394531 43.75 38.660156 39.054688 41.941406 31.785156 C 42.210938 31.195313 42.078125 30.496094 41.621094 30.035156 C 41.164063 29.578125 40.46875 29.457031 39.875 29.71875 C 37.628906 30.734375 35.253906 31.25 32.8125 31.25 C 23.335938 31.25 15.625 23.539063 15.625 14.0625 C 15.625 11.621094 16.140625 9.246094 17.15625 7 C 17.425781 6.410156 17.300781 5.707031 16.839844 5.25 C 16.613281 5.019531 16.320313 4.875 16.015625 4.820313 Z M 25 6.25 L 25 9.375 L 28.125 9.375 L 28.125 6.25 Z M 12.945313 9.839844 C 12.648438 11.222656 12.5 12.632813 12.5 14.0625 C 12.5 25.261719 21.613281 34.375 32.8125 34.375 C 34.242188 34.375 35.652344 34.226563 37.035156 33.929688 C 33.820313 38.089844 28.816406 40.625 23.4375 40.625 C 13.960938 40.625 6.25 32.914063 6.25 23.4375 C 6.25 18.058594 8.785156 13.054688 12.945313 9.839844 Z M 31.25 15.625 L 31.25 18.75 L 28.125 18.75 L 28.125 21.875 L 31.25 21.875 L 31.25 25 L 34.375 25 L 34.375 21.875 L 37.5 21.875 L 37.5 18.75 L 34.375 18.75 L 34.375 15.625 Z "/>
</g>
</svg>
