<?xml version="1.0" encoding="UTF-8"?>
<svg xmlns="http://www.w3.org/2000/svg" xmlns:xlink="http://www.w3.org/1999/xlink" width="50pt" height="50pt" viewBox="0 0 50 50" version="1.1">
<g id="surface1">
<path style=" stroke:none;fill-rule:nonzero;fill:#B6DCFE;fill-opacity:1;" d="M 38.246094 48.125 C 37.460938 48.125 36.695313 47.96875 35.976563 47.65625 C 31.660156 45.78125 23.308594 41.535156 15.886719 34.113281 C 8.464844 26.691406 4.21875 18.339844 2.34375 14.023438 C 1.398438 11.839844 1.890625 9.324219 3.597656 7.613281 L 8.257813 2.953125 C 8.953125 2.257813 9.878906 1.875 10.867188 1.875 C 11.851563 1.875 12.777344 2.257813 13.476563 2.957031 L 19.578125 9.058594 C 20.257813 9.738281 20.621094 10.679688 20.601563 11.71875 C 20.582031 12.710938 20.210938 13.644531 19.578125 14.277344 L 13.191406 20.667969 L 13.332031 21.042969 C 13.40625 21.246094 15.234375 26.078125 19.578125 30.421875 C 23.921875 34.765625 28.753906 36.59375 28.957031 36.667969 L 29.332031 36.808594 L 35.722656 30.421875 C 36.417969 29.722656 37.34375 29.339844 38.332031 29.339844 C 39.316406 29.339844 40.242188 29.722656 40.941406 30.421875 L 47.042969 36.523438 C 48.484375 37.964844 48.484375 40.304688 47.042969 41.742188 L 42.386719 46.402344 C 41.292969 47.496094 39.78125 48.125 38.246094 48.125 Z "/>
<path style=" stroke:none;fill-rule:nonzero;fill:#4788C7;fill-opacity:1;" d="M 10.867188 2.5 C 11.683594 2.5 12.453125 2.820313 13.035156 3.398438 L 19.136719 9.5 C 20.359375 10.722656 20.140625 12.832031 19.136719 13.835938 L 13.035156 19.941406 L 12.464844 20.507813 L 12.746094 21.261719 C 12.824219 21.46875 14.699219 26.421875 19.136719 30.863281 C 23.578125 35.304688 28.53125 37.175781 28.742188 37.253906 L 29.492188 37.535156 L 30.0625 36.96875 L 36.164063 30.863281 C 36.742188 30.285156 37.515625 29.964844 38.332031 29.964844 C 39.152344 29.964844 39.921875 30.285156 40.5 30.863281 L 46.605469 36.96875 C 47.796875 38.164063 47.796875 40.109375 46.605469 41.300781 L 41.945313 45.960938 C 40.964844 46.9375 39.617188 47.5 38.246094 47.5 C 37.546875 47.5 36.867188 47.359375 36.226563 47.082031 C 31.949219 45.226563 23.675781 41.019531 16.328125 33.671875 C 8.980469 26.324219 4.773438 18.050781 2.917969 13.773438 C 2.074219 11.828125 2.515625 9.582031 4.039063 8.054688 L 8.699219 3.398438 C 9.277344 2.820313 10.046875 2.5 10.867188 2.5 M 10.867188 1.25 C 9.761719 1.25 8.65625 1.671875 7.816406 2.515625 L 3.15625 7.171875 C 1.292969 9.039063 0.722656 11.851563 1.769531 14.273438 C 3.84375 19.054688 8.105469 27.21875 15.445313 34.554688 C 22.78125 41.894531 30.945313 46.15625 35.726563 48.230469 C 36.539063 48.578125 37.394531 48.75 38.246094 48.75 C 39.929688 48.75 41.589844 48.082031 42.828125 46.84375 L 47.484375 42.1875 C 49.171875 40.5 49.171875 37.769531 47.484375 36.082031 L 41.382813 29.980469 C 40.539063 29.136719 39.433594 28.714844 38.328125 28.714844 C 37.226563 28.714844 36.121094 29.136719 35.277344 29.980469 L 29.175781 36.082031 C 29.175781 36.082031 24.316406 34.277344 20.019531 29.980469 C 15.722656 25.679688 13.917969 20.824219 13.917969 20.824219 L 20.019531 14.71875 C 21.546875 13.191406 21.703125 10.300781 20.019531 8.617188 L 13.917969 2.511719 C 13.074219 1.671875 11.972656 1.25 10.867188 1.25 Z "/>
</g>
</svg>
