<?xml version="1.0" encoding="UTF-8"?>
<svg xmlns="http://www.w3.org/2000/svg" xmlns:xlink="http://www.w3.org/1999/xlink" width="50pt" height="50pt" viewBox="0 0 50 50" version="1.1">
<g id="surface1">
<path style=" stroke:none;fill-rule:nonzero;fill:#FFFFFF;fill-opacity:1;" d="M 7.8125 6.25 C 5.226563 6.25 3.125 8.351563 3.125 10.9375 L 3.125 39.0625 C 3.125 41.648438 5.226563 43.75 7.8125 43.75 L 20.640625 43.75 C 20.136719 42.757813 19.726563 41.714844 19.414063 40.625 L 7.8125 40.625 C 6.949219 40.625 6.25 39.925781 6.25 39.0625 L 6.25 36.164063 L 17.363281 23.644531 L 20.988281 27.464844 C 21.519531 26.539063 22.128906 25.664063 22.816406 24.851563 L 17.292969 19.03125 L 6.25 31.457031 L 6.25 10.9375 C 6.25 10.074219 6.949219 9.375 7.8125 9.375 L 42.1875 9.375 C 43.050781 9.375 43.75 10.074219 43.75 10.9375 L 43.75 20.640625 C 44.867188 21.214844 45.917969 21.890625 46.875 22.679688 L 46.875 10.9375 C 46.875 8.351563 44.773438 6.25 42.1875 6.25 Z M 34.375 12.5 C 32.648438 12.5 31.25 13.898438 31.25 15.625 C 31.25 17.351563 32.648438 18.75 34.375 18.75 C 36.101563 18.75 37.5 17.351563 37.5 15.625 C 37.5 13.898438 36.101563 12.5 34.375 12.5 Z M 35.9375 21.875 C 28.191406 21.875 21.875 28.191406 21.875 35.9375 C 21.875 43.683594 28.191406 50 35.9375 50 C 43.683594 50 50 43.683594 50 35.9375 C 50 28.191406 43.683594 21.875 35.9375 21.875 Z M 35.9375 25 C 41.996094 25 46.875 29.878906 46.875 35.9375 C 46.875 41.996094 41.996094 46.875 35.9375 46.875 C 29.878906 46.875 25 41.996094 25 35.9375 C 25 29.878906 29.878906 25 35.9375 25 Z M 34.375 28.125 L 34.375 34.375 L 28.125 34.375 L 28.125 37.5 L 34.375 37.5 L 34.375 43.75 L 37.5 43.75 L 37.5 37.5 L 43.75 37.5 L 43.75 34.375 L 37.5 34.375 L 37.5 28.125 Z "/>
</g>
</svg>
