<?xml version="1.0" encoding="UTF-8"?>
<svg xmlns="http://www.w3.org/2000/svg" xmlns:xlink="http://www.w3.org/1999/xlink" width="64pt" height="64pt" viewBox="0 0 64 64" version="1.1">
<g id="surface1">
<path style=" stroke:none;fill-rule:nonzero;fill:#FFFFFF;fill-opacity:1;" d="M 10 10 L 10 26 L 14 26 L 14 30 L 18 30 L 18 26 L 26 26 L 26 10 Z M 26 26 L 26 30 L 30 30 L 30 34 L 22 34 L 22 38 L 10 38 L 10 54 L 26 54 L 26 38 L 38 38 L 38 34 L 34 34 L 34 30 L 42 30 L 42 26 L 46 26 L 46 30 L 50 30 L 50 26 L 54 26 L 54 10 L 38 10 L 38 26 Z M 50 30 L 50 34 L 54 34 L 54 30 Z M 50 34 L 46 34 L 46 38 L 50 38 Z M 50 38 L 50 42 L 54 42 L 54 38 Z M 50 42 L 46 42 L 46 38 L 42 38 L 42 42 L 32 42 L 32 54 L 36 54 L 36 46 L 44 46 L 44 50 L 48 50 L 48 46 L 50 46 Z M 44 50 L 40 50 L 40 54 L 44 54 Z M 46 34 L 46 30 L 42 30 L 42 34 Z M 22 34 L 22 30 L 18 30 L 18 34 Z M 14 30 L 10 30 L 10 34 L 14 34 Z M 30 10 L 30 18 L 28 18 L 28 22 L 30 22 L 30 24 L 34 24 L 34 18 L 36 18 L 36 14 L 34 14 L 34 10 Z M 14 14 L 22 14 L 22 22 L 14 22 Z M 42 14 L 50 14 L 50 22 L 42 22 Z M 16 16 L 16 20 L 20 20 L 20 16 Z M 44 16 L 44 20 L 48 20 L 48 16 Z M 14 42 L 22 42 L 22 50 L 14 50 Z M 16 44 L 16 48 L 20 48 L 20 44 Z M 50 50 L 50 54 L 54 54 L 54 50 Z "/>
</g>
</svg>
