<?xml version="1.0" encoding="UTF-8"?>
<svg xmlns="http://www.w3.org/2000/svg" xmlns:xlink="http://www.w3.org/1999/xlink" width="48pt" height="48pt" viewBox="0 0 48 48" version="1.1">
<g id="surface1">
<path style=" stroke:none;fill-rule:nonzero;fill:#FFFFFF;fill-opacity:1;" d="M 15.1875 6 L 18.125 10 L 26 10 C 32.652344 10 38 15.347656 38 22 L 38 30 L 32 30 L 40 40.9375 L 48 30 L 42 30 L 42 22 C 42 13.1875 34.8125 6 26 6 Z M 8 7.0625 L 0 18 L 6 18 L 6 26 C 6 34.8125 13.1875 42 22 42 L 32.8125 42 L 29.875 38 L 22 38 C 15.347656 38 10 32.652344 10 26 L 10 18 L 16 18 Z "/>
</g>
</svg>
