<?xml version="1.0" encoding="UTF-8"?>
<svg xmlns="http://www.w3.org/2000/svg" xmlns:xlink="http://www.w3.org/1999/xlink" width="64pt" height="64pt" viewBox="0 0 64 64" version="1.1">
<g id="surface1">
<path style=" stroke:none;fill-rule:nonzero;fill:#808080;fill-opacity:1;" d="M 32 6 C 17.664063 6 6 17.664063 6 32 C 6 46.335938 17.664063 58 32 58 C 46.335938 58 58 46.335938 58 32 C 58 17.664063 46.335938 6 32 6 Z M 32 10 C 44.175781 10 54 19.824219 54 32 C 54 44.175781 44.175781 54 32 54 C 19.824219 54 10 44.175781 10 32 C 10 19.824219 19.824219 10 32 10 Z M 30 18 L 30 38 L 24 38 L 32 46 L 40 38 L 34 38 L 34 18 Z "/>
</g>
</svg>
