<?xml version="1.0" encoding="UTF-8"?>
<svg xmlns="http://www.w3.org/2000/svg" xmlns:xlink="http://www.w3.org/1999/xlink" width="50pt" height="50pt" viewBox="0 0 50 50" version="1.1">
<g id="surface1">
<path style=" stroke:none;fill-rule:nonzero;fill:#FFFFFF;fill-opacity:1;" d="M 8.097656 3.125 C 5.359375 3.125 3.125 5.359375 3.125 8.097656 L 3.125 38.777344 C 3.125 41.515625 5.359375 43.75 8.097656 43.75 L 24.253906 43.75 C 26.78125 47.515625 31.078125 50 35.9375 50 C 43.683594 50 50 43.683594 50 35.9375 C 50 31.078125 47.515625 26.78125 43.75 24.253906 L 43.75 10.859375 L 36.015625 3.125 Z M 8.097656 6.25 L 9.375 6.25 L 9.375 12.890625 C 9.375 15.980469 11.578125 18.75 14.585938 18.75 L 29.164063 18.75 C 32.171875 18.75 34.375 15.980469 34.375 12.890625 L 34.375 6.25 L 34.722656 6.25 L 40.625 12.152344 L 40.625 22.734375 C 39.152344 22.210938 37.589844 21.875 35.9375 21.875 C 31.078125 21.875 26.78125 24.359375 24.253906 28.125 L 17.1875 28.125 C 14.601563 28.125 12.5 30.226563 12.5 32.8125 L 12.5 40.625 L 8.097656 40.625 C 7.082031 40.625 6.25 39.792969 6.25 38.777344 L 6.25 8.097656 C 6.25 7.082031 7.082031 6.25 8.097656 6.25 Z M 12.5 6.25 L 21.875 6.25 L 21.875 12.5 L 28.125 12.5 L 28.125 6.25 L 31.25 6.25 L 31.25 12.890625 C 31.25 14.546875 30.183594 15.625 29.164063 15.625 L 14.585938 15.625 C 13.566406 15.625 12.5 14.546875 12.5 12.890625 Z M 35.9375 25 C 41.996094 25 46.875 29.878906 46.875 35.9375 C 46.875 41.996094 41.996094 46.875 35.9375 46.875 C 29.878906 46.875 25 41.996094 25 35.9375 C 25 29.878906 29.878906 25 35.9375 25 Z M 40.632813 30.816406 L 34.875 36.570313 L 31.292969 32.988281 L 29.082031 35.199219 L 34.875 40.992188 L 42.839844 33.027344 Z M 17.1875 31.25 L 22.734375 31.25 C 22.210938 32.722656 21.875 34.285156 21.875 35.9375 C 21.875 37.589844 22.210938 39.152344 22.734375 40.625 L 15.625 40.625 L 15.625 32.8125 C 15.625 31.949219 16.328125 31.25 17.1875 31.25 Z "/>
</g>
</svg>
