<?xml version="1.0" encoding="UTF-8"?>
<svg xmlns="http://www.w3.org/2000/svg" xmlns:xlink="http://www.w3.org/1999/xlink" width="32pt" height="32pt" viewBox="0 0 32 32" version="1.1">
<g id="surface1">
<path style=" stroke:none;fill-rule:nonzero;fill:#808080;fill-opacity:1;" d="M 16 4 C 13.75 4 12.242188 4.882813 10.886719 5.621094 C 9.527344 6.359375 8.28125 7 6 7 L 5 7 L 5 8 C 5 15.71875 7.605469 20.738281 10.246094 23.777344 C 12.886719 26.816406 15.628906 27.925781 15.628906 27.925781 L 15.996094 28.074219 L 16.367188 27.929688 C 16.367188 27.929688 19.113281 26.828125 21.753906 23.800781 C 24.394531 20.765625 27 15.746094 27 8 L 27 7 L 26 7 C 23.730469 7 22.484375 6.359375 21.121094 5.621094 C 19.761719 4.882813 18.25 4 16 4 Z M 16 6 C 17.75 6 18.765625 6.617188 20.171875 7.378906 C 21.351563 8.019531 22.910156 8.625 24.933594 8.835938 C 24.742188 15.601563 22.503906 19.894531 20.246094 22.488281 C 18.195313 24.84375 16.480469 25.65625 16.003906 25.871094 C 15.523438 25.652344 13.808594 24.824219 11.753906 22.464844 C 9.496094 19.863281 7.261719 15.578125 7.070313 8.835938 C 9.097656 8.625 10.660156 8.019531 11.839844 7.378906 C 13.238281 6.617188 14.25 6 16 6 Z M 16 10 C 14.34375 10 13 11.34375 13 13 C 13.003906 14.171875 13.6875 15.238281 14.753906 15.726563 L 14 21 L 18 21 L 17.246094 15.726563 C 18.3125 15.238281 18.996094 14.171875 19 13 C 19 11.34375 17.65625 10 16 10 Z "/>
</g>
</svg>
