<svg xmlns="http://www.w3.org/2000/svg" width="25" height="25" viewBox="0 0 25 25"><path fill-rule="evenodd" d="M15.4260044,2 L18.9974329,2 C19.5497177,2 19.9974329,2.44771525 19.9974329,3 L19.9974329,12.34 L19.9974329,22 C19.9974329,22.5522847 19.5497177,23 18.9974329,23 L15.4260044,23 C15.4260044,21.3431458 14.0828586,20 12.4260044,20 C10.7691501,20 9.42600437,21.3431458 9.42600437,23 L6,23 C5.44771525,23 5,22.5522847 5,22 C5,21.9991454 5.0000011,21.9982908 5.00000329,21.9974362 L5.0244807,12.45 L5.00002795,3.00258829 C4.99859847,2.45030539 5.4451534,2.00143282 5.9974363,2.00000335 C5.99829907,2.00000112 5.99916183,2 6.0000246,2 L9.42600437,2 C9.42600437,3.65685425 10.7691501,5 12.4260044,5 C14.0828586,5 15.4260044,3.65685425 15.4260044,2 Z M5.99183676,9 L7.49743295,9 C7.77357532,9 7.99743295,8.77614237 7.99743295,8.5 C7.99743295,8.22385763 7.77357532,8 7.49743295,8 L5.99183676,8 C5.71569439,8 5.49183676,8.22385763 5.49183676,8.5 C5.49183676,8.77614237 5.71569439,9 5.99183676,9 Z M18.9974329,8 L17.4974329,8 C17.2212906,8 16.9974329,8.22385763 16.9974329,8.5 C16.9974329,8.77614237 17.2212906,9 17.4974329,9 L18.9974329,9 C19.2735753,9 19.4974329,8.77614237 19.4974329,8.5 C19.4974329,8.22385763 19.2735753,8 18.9974329,8 Z M9.49743295,9 L11.4974329,9 C11.7735753,9 11.9974329,8.77614237 11.9974329,8.5 C11.9974329,8.22385763 11.7735753,8 11.4974329,8 L9.49743295,8 C9.22129057,8 8.99743295,8.22385763 8.99743295,8.5 C8.99743295,8.77614237 9.22129057,9 9.49743295,9 Z M13.4974329,9 L15.4974329,9 C15.7735753,9 15.9974329,8.77614237 15.9974329,8.5 C15.9974329,8.22385763 15.7735753,8 15.4974329,8 L13.4974329,8 C13.2212906,8 12.9974329,8.22385763 12.9974329,8.5 C12.9974329,8.77614237 13.2212906,9 13.4974329,9 Z"/></svg>