<svg xmlns="http://www.w3.org/2000/svg" enable-background="new 0 0 512 512" viewBox="0 0 512 512"><path d="M505.081,196.611c3.82,0,6.919-3.097,6.919-6.919V123.56c0-18.536-15.081-33.615-33.617-33.615H33.613
	C15.077,89.945,0,105.024,0,123.56v66.133c0,3.822,3.099,6.919,6.919,6.919c32.748,0,59.387,26.642,59.387,59.387
	s-26.64,59.387-59.387,59.387c-3.82,0-6.919,3.097-6.919,6.919v66.135c0,18.536,15.077,33.615,33.613,33.615h444.77
	c18.536,0,33.617-15.079,33.617-33.615v-66.135c0-3.822-3.099-6.919-6.919-6.919c-32.748,0-59.387-26.642-59.387-59.387
	S472.333,196.611,505.081,196.611z M431.856,255.999c0,38.043,29.162,69.403,66.306,72.901v59.541
	c0,10.905-8.874,19.777-19.779,19.777H174.297V375.94c0-3.822-3.099-6.919-6.919-6.919s-6.919,3.097-6.919,6.919v32.277H33.613
	c-10.905,0-19.775-8.872-19.775-19.777V328.9c37.144-3.498,66.306-34.858,66.306-72.901s-29.162-69.403-66.306-72.901V123.56
	c0-10.905,8.869-19.777,19.775-19.777H160.46v32.275c0,3.822,3.099,6.919,6.919,6.919s6.919-3.097,6.919-6.919v-32.275h304.086
	c10.905,0,19.779,8.872,19.779,19.777v59.538C461.018,186.596,431.856,217.956,431.856,255.999z M174.297,234.92v42.158
	c0,3.822-3.099,6.919-6.919,6.919s-6.919-3.097-6.919-6.919V234.92c0-3.822,3.099-6.919,6.919-6.919
	C171.198,228.001,174.297,231.098,174.297,234.92z M174.297,305.429v42.162c0,3.822-3.099,6.919-6.919,6.919
	s-6.919-3.097-6.919-6.919v-42.162c0-3.822,3.099-6.919,6.919-6.919C171.198,298.51,174.297,301.607,174.297,305.429z
	 M174.297,164.409v42.16c0,3.822-3.099,6.919-6.919,6.919s-6.919-3.097-6.919-6.919v-42.16c0-3.822,3.099-6.919,6.919-6.919
	C171.198,157.49,174.297,160.587,174.297,164.409z M378.973,170.377c0,3.822-3.099,6.919-6.919,6.919H249.82
	c-3.82,0-6.919-3.097-6.919-6.919s3.099-6.919,6.919-6.919h122.234C375.874,163.458,378.973,166.555,378.973,170.377z
	 M378.973,227.458c0,3.822-3.099,6.919-6.919,6.919H249.82c-3.82,0-6.919-3.097-6.919-6.919s3.099-6.919,6.919-6.919h122.234
	C375.874,220.539,378.973,223.636,378.973,227.458z M378.973,284.539c0,3.822-3.099,6.919-6.919,6.919H249.82
	c-3.82,0-6.919-3.097-6.919-6.919c0-3.822,3.099-6.919,6.919-6.919h122.234C375.874,277.62,378.973,280.717,378.973,284.539z
	 M378.973,341.62c0,3.822-3.099,6.919-6.919,6.919H249.82c-3.82,0-6.919-3.097-6.919-6.919c0-3.822,3.099-6.919,6.919-6.919h122.234
	C375.874,334.702,378.973,337.798,378.973,341.62z"/></svg>