<?xml version="1.0" encoding="UTF-8"?>
<svg xmlns="http://www.w3.org/2000/svg" xmlns:xlink="http://www.w3.org/1999/xlink" width="32pt" height="32pt" viewBox="0 0 32 32" version="1.1">
<g id="surface1">
<path style=" stroke:none;fill-rule:nonzero;fill:#808080;fill-opacity:1;" d="M 2 7 L 2 14 L 3 14 C 4.191406 14 5 14.808594 5 16 C 5 17.191406 4.191406 18 3 18 L 2 18 L 2 25 L 30 25 L 30 18 L 29 18 C 27.808594 18 27 17.191406 27 16 C 27 14.808594 27.808594 14 29 14 L 30 14 L 30 7 Z M 4 9 L 28 9 L 28 12.1875 C 26.285156 12.636719 25 14.140625 25 16 C 25 17.859375 26.285156 19.363281 28 19.8125 L 28 23 L 4 23 L 4 19.8125 C 5.714844 19.363281 7 17.859375 7 16 C 7 14.140625 5.714844 12.636719 4 12.1875 Z M 16 10.09375 L 14.3125 14 L 10 14.5 L 13.1875 17.40625 L 12.3125 21.59375 L 16 19.5 L 19.6875 21.59375 L 18.8125 17.40625 L 22 14.5 L 17.6875 14 Z M 16 15.09375 L 16.40625 16 L 17.3125 16.09375 L 16.59375 16.6875 L 16.8125 17.59375 L 16 17.09375 L 15.1875 17.59375 L 15.40625 16.6875 L 14.6875 16 L 15.59375 15.90625 Z "/>
</g>
</svg>
