<?xml version="1.0" encoding="UTF-8"?>
<svg xmlns="http://www.w3.org/2000/svg" xmlns:xlink="http://www.w3.org/1999/xlink" width="64pt" height="64pt" viewBox="0 0 64 64" version="1.1">
<g id="surface1">
<path style=" stroke:none;fill-rule:nonzero;fill:#FFFFFF;fill-opacity:1;" d="M 16 6 L 16 14.308594 L 6.875 20.308594 L 6 20.941406 L 6 56 L 58 56 L 58 20.941406 L 57.125 20.308594 L 48 14.308594 L 48 6 Z M 23.808594 10 L 40.191406 10 C 40.078125 10.308594 40 10.65625 40 11 C 40 12.65625 41.34375 14 43 14 C 43.34375 14 43.691406 13.921875 44 13.816406 L 44 28.5 L 39.625 31.75 C 38.648438 28.429688 35.636719 26 32 26 C 28.363281 26 25.351563 28.429688 24.375 31.75 L 20 28.5 L 20 13.816406 C 20.308594 13.921875 20.65625 14 21 14 C 22.65625 14 24 12.65625 24 11 C 24 10.65625 23.921875 10.308594 23.808594 10 Z M 32 17 C 30.34375 17 29 18.34375 29 20 C 29 21.65625 30.34375 23 32 23 C 33.65625 23 35 21.65625 35 20 C 35 18.34375 33.65625 17 32 17 Z M 16 19.125 L 16 25.5 L 11.5 22.125 Z M 48 19.125 L 52.5 22.125 L 48 25.5 Z M 10 26 L 30.808594 41.625 L 32 42.5 L 33.191406 41.625 L 54 26 L 54 52 L 10 52 Z M 32 30 C 34.378906 30 36 31.621094 36 34 L 36 34.5 L 32 37.5 L 28 34.5 L 28 34 C 28 31.621094 29.621094 30 32 30 Z "/>
</g>
</svg>
