<svg xmlns="http://www.w3.org/2000/svg" viewBox="0 0 100 100"><path d="m46.06 43.24-7.65 4.08-4.67-8.3a1.993 1.993 0 0 0-3.48 0l-4.67 8.3-7.65-4.08c-.72-.38-1.59-.29-2.22.22-.62.52-.88 1.36-.63 2.14l4.69 15c.26.83 1.03 1.4 1.91 1.4h20.62c.88 0 1.65-.57 1.91-1.4l4.69-15a2.02 2.02 0 0 0-.63-2.14c-.63-.52-1.5-.61-2.22-.22zM40.84 58H23.16l-2.79-8.94 5.07 2.7a2 2 0 0 0 2.68-.78l3.88-6.9 3.88 6.9c.53.95 1.72 1.29 2.68.78l5.07-2.7L40.84 58zM83 38H58c-1.1 0-2 .9-2 2s.9 2 2 2h25c1.1 0 2-.9 2-2s-.9-2-2-2zm0 10H58c-1.1 0-2 .9-2 2s.9 2 2 2h25a2 2 0 1 0 0-4zm0 10H58c-1.1 0-2 .9-2 2s.9 2 2 2h25c1.1 0 2-.9 2-2s-.9-2-2-2z"/><path d="M93 34c-2.76 0-5-2.24-5-5 0-1.1-.9-2-2-2H14c-1.1 0-2 .9-2 2 0 2.76-2.24 5-5 5-1.1 0-2 .9-2 2v28c0 1.1.9 2 2 2 2.76 0 5 2.24 5 5 0 1.1.9 2 2 2h72c1.1 0 2-.9 2-2 0-2.76 2.24-5 5-5 1.1 0 2-.9 2-2V36c0-1.1-.9-2-2-2zm-2 28.22A9.053 9.053 0 0 0 84.22 69H15.78A9.053 9.053 0 0 0 9 62.22V37.78A9.053 9.053 0 0 0 15.78 31h68.45a9.053 9.053 0 0 0 6.78 6.78L91 62.22z"/></svg>